<?xml version="1.0" encoding="iso-8859-1"?>
<!-- Generator: Adobe Illustrator 16.0.0, SVG Export Plug-In . SVG Version: 6.00 Build 0)  -->
<!DOCTYPE svg PUBLIC "-//W3C//DTD SVG 1.1//EN" "http://www.w3.org/Graphics/SVG/1.1/DTD/svg11.dtd">
<svg version="1.1" id="Capa_1" xmlns="http://www.w3.org/2000/svg" xmlns:xlink="http://www.w3.org/1999/xlink" x="0px" y="0px"
	 width="318.159px" height="318.159px" viewBox="0 0 318.159 318.159" style="enable-background:new 0 0 318.159 318.159;"
	 xml:space="preserve">
<g>
	<path d="M317.789,21.082l-0.285-0.647c-0.186-0.44-4.877-11.035-10.827-10.458c0.062-0.773-0.025-1.807-0.56-2.964
		c-1.361-2.921-4.914-5.217-10.562-6.828L294.917,0l-0.295,0.593c-0.083,0.166-8.342,16.64-26.129,30.064l-0.601,0.463l0.43,0.624
		c0.135,0.207,3.324,5.059-3.594,11.687L154.769,148.848c-1.087-1.53-2.302-2.97-3.612-4.277
		c-6.255-6.258-14.571-9.699-23.416-9.699s-17.163,3.441-23.42,9.699c-6.077,6.076-9.507,14.157-9.676,22.776
		c-0.329,0.957-4.466,12.277-15.606,12.903c-0.067,0.005-0.127,0.011-0.184,0.021c-3.643-0.559-7.35-0.849-11.035-0.849
		c-19.029,0-36.899,7.394-50.321,20.806c-13.16,13.157-18.913,29.163-16.647,46.287c2.1,15.829,10.768,31.757,25.085,46.069
		c16.484,16.492,35.423,25.575,53.324,25.575l0,0c14.524,0,27.659-5.764,39.027-17.135c13.01-13.018,20.376-30.22,20.837-48.592
		l0.028,0.021l-0.005-2.206c-0.019-3.967,0.557-23.81,13.631-24.622c15.506-0.958,24.122-12.169,24.434-12.594
		c0.554-0.615,5.359-6.084,3.831-9.532c-0.988-2.211-4.147-2.91-9.538-2.103c-3.997,0.611-7.166-0.342-9.427-2.807
		c-4.914-5.375-4.204-16.238-4.14-17.119c0.318-0.714,0.614-1.434,0.88-2.164l117.88-124.078c0.03-0.049,3.484-4.904,8.771-4.904
		c0.678,0,1.372,0.083,2.056,0.238l0.513,0.117l0.311-0.425c0.155-0.212,15.523-21.052,28.821-28.84L317.789,21.082z
		 M102.959,192.243l6.108-6.111c2.115-2.112,5.546-2.112,7.668,0l16.288,16.291c2.115,2.117,2.115,5.546,0,7.669l-6.107,6.104
		c-2.115,2.118-5.546,2.118-7.669,0l-16.288-16.285C100.844,197.788,100.844,194.355,102.959,192.243z"/>
</g>
<g>
</g>
<g>
</g>
<g>
</g>
<g>
</g>
<g>
</g>
<g>
</g>
<g>
</g>
<g>
</g>
<g>
</g>
<g>
</g>
<g>
</g>
<g>
</g>
<g>
</g>
<g>
</g>
<g>
</g>
</svg>
